<svg xmlns="http://www.w3.org/2000/svg" width="19" height="28" fill="none"><g clip-path="url(#a)"><path fill="url(#b)" d="M10 20.396A5.227 5.227 0 0 1 8 20l1.403 7.03a.608.608 0 0 0 1.194 0L12 20a5.227 5.227 0 0 1-2 .396Z"/><path fill="url(#c)" d="M9.5 19a9.5 9.5 0 1 0 0-19 9.5 9.5 0 0 0 0 19Z"/><path fill="#EEEFF3" d="M14.992 4h-1.394v.578a.13.13 0 0 1-.13.13h-.304a.131.131 0 0 1-.13-.13V4h-1.395a.19.19 0 0 0-.189.19v2.974c0 .104.085.189.19.189h3.352a.19.19 0 0 0 .19-.19V4.19a.19.19 0 0 0-.19-.189ZM13.051 14.244a1.537 1.537 0 0 1-1.535-1.535c0-.847.689-1.536 1.535-1.536.847 0 1.536.689 1.536 1.536 0 .846-.689 1.535-1.536 1.535Zm0-2.297a.763.763 0 0 0 0 1.524.763.763 0 0 0 0-1.524ZM4.536 14.244A1.537 1.537 0 0 1 3 12.71c0-.847.689-1.536 1.536-1.536.846 0 1.535.689 1.535 1.536 0 .846-.689 1.535-1.535 1.535Zm0-2.297a.763.763 0 1 0 .001 1.525.763.763 0 0 0-.001-1.525Z"/><path fill="#EEEFF3" d="M13.785 9.703v-.42h1.07a.438.438 0 0 0 .439-.44v-.311a.439.439 0 0 0-.439-.439H9.49a.439.439 0 0 0-.439.439v.316c0 .242.197.439.439.439h.593v1.685H7.111a2.97 2.97 0 0 0-.837-.857l1.169-4.217h1.08a.439.439 0 0 0 0-.877H6.988a.565.565 0 0 0-.197.046.439.439 0 0 0-.17.15L3.511 9.88c-.094.137-.162.308-.11.46.079.234.347.317.623.236a2.074 2.074 0 0 1 2.675 1.983c0 .242.196.438.438.438h3.404a.439.439 0 0 0 .439-.439c0-1.142.929-2.071 2.071-2.071 1.143 0 2.072.929 2.072 2.071a.439.439 0 1 0 .877 0c0-1.372-.943-2.53-2.215-2.856Z"/></g><defs><linearGradient id="b" x1="10" x2="10" y1="20" y2="27.52" gradientUnits="userSpaceOnUse"><stop stop-color="#2C3036"/><stop offset="1" stop-color="#575F6B"/></linearGradient><linearGradient id="c" x1="9.5" x2="9.5" y1="0" y2="19" gradientUnits="userSpaceOnUse"><stop stop-color="#2C3036"/><stop offset="1" stop-color="#575F6B"/></linearGradient><clipPath id="a"><path fill="#fff" d="M0 0h19v28H0z"/></clipPath></defs></svg>