<svg xmlns="http://www.w3.org/2000/svg" width="19" height="28" fill="none"><g clip-path="url(#a)"><path fill="url(#b)" d="M10 20.396A5.227 5.227 0 0 1 8 20l1.403 7.03a.608.608 0 0 0 1.194 0L12 20a5.227 5.227 0 0 1-2 .396Z"/><path fill="url(#c)" d="M9.5 19a9.5 9.5 0 1 0 0-19 9.5 9.5 0 0 0 0 19Z"/><path fill="#EEEFF3" d="M11.684 4.215H10.68V4.18a1.181 1.181 0 0 0-2.36 0v.035H7.316a2.25 2.25 0 0 0-2.233 1.99h8.834a2.25 2.25 0 0 0-2.233-1.99ZM6.361 14.018l-.188-.119-.189.119c-.07.043-.68.445-.68 1.114a.869.869 0 0 0 1.737 0c0-.669-.61-1.07-.68-1.114ZM8.579 14.018l-.188-.119-.189.119c-.07.043-.68.445-.68 1.114a.869.869 0 0 0 1.737 0c0-.669-.61-1.07-.68-1.114ZM10.797 14.018l-.188-.119-.188.119c-.07.043-.68.445-.68 1.114a.869.869 0 0 0 1.736 0c0-.669-.61-1.07-.68-1.114ZM13.015 14.018l-.188-.119-.188.119c-.07.043-.68.445-.68 1.114a.869.869 0 0 0 1.736 0c0-.669-.61-1.07-.68-1.114ZM14.29 6.983H4.71a.961.961 0 0 0 0 1.921h.359v3.099c0 .88.715 1.595 1.595 1.595h5.672c.88 0 1.595-.716 1.595-1.595V8.904h.359a.961.961 0 0 0 0-1.92Z"/></g><defs><linearGradient id="b" x1="10" x2="10" y1="20" y2="27.52" gradientUnits="userSpaceOnUse"><stop stopColor="#2C3036"/><stop offset="1" stopColor="#575F6B"/></linearGradient><linearGradient id="c" x1="9.5" x2="9.5" y1="0" y2="19" gradientUnits="userSpaceOnUse"><stop stopColor="#2C3036"/><stop offset="1" stopColor="#575F6B"/></linearGradient><clipPath id="a"><path fill="#fff" d="M0 0h19v28H0z"/></clipPath></defs></svg>